<?xml version="1.0" encoding="utf-8"?>
<!-- Generator: Adobe Illustrator 28.1.0, SVG Export Plug-In . SVG Version: 6.00 Build 0)  -->
<svg version="1.1" id="Layer_1" xmlns="http://www.w3.org/2000/svg" xmlns:xlink="http://www.w3.org/1999/xlink" x="0px" y="0px"
	 viewBox="0 0 1297 388" style="enable-background:new 0 0 1297 388;" xml:space="preserve">
<style type="text/css">
	.st0{fill:#231F20;}
	.st1{fill:#FFFFFF;stroke:#000000;stroke-width:15;stroke-linecap:round;stroke-linejoin:round;stroke-miterlimit:10;}
	.st2{fill:#FFFFFF;}
	.st3{fill:#FFFFFF;stroke:#000000;stroke-width:17;stroke-linecap:round;stroke-linejoin:round;stroke-miterlimit:10;}
</style>
<g id="_x23_ffffffff_00000124157632811267982560000003388560288376238760_">
	<path class="st0" d="M369.3,306.2c2.2-1.9,5.3-1.5,8-1.8c0,1.2,0.1,2.4,0.1,3.7c-1.3,0.1-2.5,0.3-3.7,0.6c-0.4,1.2-0.5,2.4-0.7,3.7
		c1.5,0,3,0.1,4.5,0.1c0,1.2,0,2.5,0,3.7c-1.4,0-2.9,0-4.3,0c0,4.7,0,9.4,0,14.1c-1.7,0-3.5,0-5.2,0c0-4.7,0-9.4,0-14.2
		c-0.6,0-1.9,0-2.5,0c0-0.9,0-2.8,0-3.7c0.6,0,1.8,0,2.4,0C368.2,310.4,367.7,307.8,369.3,306.2z"/>
	<path class="st0" d="M440.1,309c5.5-5,13.5-4.3,20.4-4.5c5.9,0.2,12.6-0.4,17.5,3.6c3.6,3.2,3.7,8.3,4,12.7c-4,0-8.1,0-12.1,0
		c-0.5-2.3-1-5.3-3.8-5.8c-4.4-0.8-9.1-0.8-13.5,0c-3.1,0.5-5.2,3.4-5.3,6.4c-0.4,6.3-0.3,12.7,0,19c0.1,2.8,1.7,5.8,4.7,6.3
		c4.8,0.9,9.9,1.1,14.6-0.3c3.8-1.5,3.4-6.2,3.4-9.5c-3.9,0-7.8,0-11.7,0c0-2.8,0-5.6,0-8.4c7.9,0,15.7,0,23.6,0
		c0.1,6.3,0.7,12.8-0.6,19c-0.9,4.7-5,8.3-9.7,9c-7,1.1-14.2,1-21.3,0.6c-5.5-0.3-11.3-2.9-13.7-8.1c-2.9-6.8-1.9-14.4-2.1-21.5
		C435,321.1,434.9,313.6,440.1,309z"/>
	<path class="st0" d="M631.3,305c3.5,0,7,0,10.4,0c0,17.3,0,34.7,0,52c-3.4,0-6.8,0-10.2,0c0.1-2.2,0.3-4.5,0.5-6.7
		c-1.4,2.9-3.2,6-6.6,6.6c-5,0.9-10.8,0.9-15.1-2.3c-3.4-2.6-3.7-7.3-3.9-11.2c-0.1-5-0.4-10,0.7-14.9c0.8-4.1,4.2-7.3,8.3-7.9
		c5.8-1.3,13.4-0.7,16,5.6C631.2,319.2,631.3,312.1,631.3,305"/>
	<path class="st0" d="M666.3,305c13.8,0,27.6,0,41.4,0c0,3.4,0,6.9,0,10.3c-5,0-10,0-15,0c0,13.9,0,27.8,0,41.7c-4,0-8,0-12.1,0
		c0-13.9,0-27.8,0-41.7c-4.8,0-9.6,0-14.3,0C666.3,311.9,666.3,308.4,666.3,305z"/>
	<path class="st0" d="M800.8,307.8c4.4-3.7,10.6-3.2,16-3.3c0,2.5,0,5.1,0.1,7.6c-2.3,0-5-0.6-7,0.8c-1.9,2-1.1,5.1-1.3,7.6
		c2.9,0,5.8,0,8.8,0c0,2.5,0,5.1,0,7.6c-2.9,0-5.8,0-8.8,0c0,9.6,0,19.2,0,28.8c-3.5,0-7,0-10.5,0c0-9.6,0-19.2,0-28.8
		c-1.7,0-3.4,0-5.1,0c0-2.5,0-5.1,0-7.6c1.7,0,3.4,0,5.1,0C798.3,316.3,797.5,311.1,800.8,307.8z"/>
	<path class="st0" d="M888.6,305c6.1,0,12.2,0,18.2,0c5.6,17.3,11.3,34.7,17,52c-4.2,0-8.3,0-12.4,0c-1-3.2-2-6.3-3-9.5
		c-7-0.1-14-0.1-21,0c-1,3.2-2,6.3-2.9,9.5c-4.2,0-8.4,0-12.6,0C877.4,339.7,883,322.3,888.6,305"/>
	<path class="st0" d="M712.7,305c3.5,0,7,0,10.5,0c0,7.5,0,15.1,0,22.6c1.3-2.7,2.7-5.8,5.8-6.7c4.1-1.1,8.7-1.1,12.7,0.5
		c3.7,1.5,5.5,5.6,5.5,9.4c0.1,8.7,0,17.5,0,26.2c-3.5,0-7,0-10.5,0c0-7.5,0-15,0-22.5c0-2.1-0.2-5-2.6-5.8
		c-3.9-1.4-10.2-0.4-10.7,4.6c-0.6,7.8-0.1,15.7-0.3,23.6c-3.5,0-7,0-10.5,0C712.7,339.7,712.7,322.3,712.7,305z"/>
	<path class="st0" d="M1064.6,305c4,0,8.1,0,12.1,0c0,17.3,0,34.7,0,52c-4,0-8.1,0-12.1,0C1064.6,339.7,1064.6,322.3,1064.6,305z"/>
	<path class="st0" d="M1081.6,305c4.1,0,8.2,0,12.3,0c4.4,14.1,9,28.1,12.9,42.3c3.9-14.2,8.5-28.2,13-42.3c4.2,0,8.4,0,12.6,0
		c-5.4,17.3-10.8,34.7-16.3,52c-6.2,0-12.4,0-18.6,0C1092.2,339.7,1086.9,322.3,1081.6,305z"/>
	<path class="st0" d="M383.6,312.6c3.4-0.6,7.1-0.8,10.5,0.2c3.4,1.4,3.4,5.6,3.3,8.7c-0.1,2.9-0.1,7-3.4,8.2c-3.7,1-8,1.1-11.6-0.2
		c-3.3-1.7-2.8-5.9-2.9-9C379.4,317.4,380.1,313.4,383.6,312.6"/>
	<path class="st0" d="M400.9,312.4c1.8,0,3.5,0,5.3,0c-0.1,0.7-0.4,2.1-0.5,2.8c1.6-2.6,4.8-3.9,7.7-2.5c2.6,1.3,2,4.7,2.3,7.1
		c-1.6,0-3.1,0-4.7,0c0.6-3-2.9-5.4-4.7-2.2c-0.5,4.2-0.1,8.5-0.2,12.7c-1.7,0-3.5,0-5.2,0C400.9,324.3,400.9,318.4,400.9,312.4z"/>
	<path class="st0" d="M825.5,312.8c3.5,0,6.9,0,10.4,0c0,2.6,0,5.2,0,7.8c4.7,0,9.4,0,14.1,0c0,2.5,0,5.1,0,7.6c-4.7,0-9.4,0-14.1,0
		c0.1,6.4-0.3,12.9,0.2,19.3c0.2,3,4.9,3.1,6.4,1c0.8-1.9,0.6-3.9,0.7-5.9c2.8,0,5.6,0,8.5,0c0,4.5,0.5,10.4-4,13.1
		c-4.4,2.2-9.5,1.9-14.2,1.5c-4-0.3-7.8-3.4-7.8-7.6c-0.2-7.1,0-14.2-0.1-21.4c-1.6,0-3.2,0-4.7,0c0-2.5,0-5.1,0-7.6
		c1.6,0,3.1,0,4.7,0C825.5,318,825.5,315.4,825.5,312.8z"/>
	<path class="st0" d="M971.1,312.8c3.5,0,7,0,10.5,0c0,2.6,0,5.2,0,7.8c4.7,0,9.4,0,14.1,0c0,2.5,0,5.1,0,7.6c-4.7,0-9.4,0-14.1,0
		c0.1,6.4-0.2,12.8,0.2,19.1c0.1,3.1,4.6,3.2,6.2,1.3c1-1.9,0.7-4.1,0.9-6.1c2.8,0,5.6,0,8.4,0c0,4.6,0.4,10.7-4.3,13.3
		c-4.5,2-9.8,1.8-14.6,1.2c-3.8-0.5-7.2-3.6-7.2-7.6c-0.2-7.1,0-14.2-0.1-21.2c-1.6,0-3.1,0-4.7,0c0-2.5,0-5.1,0-7.6
		c1.6,0,3.1,0,4.7,0C971.1,318,971.1,315.4,971.1,312.8z"/>
	<path class="st0" d="M488.8,320.6c3.5,0,7,0,10.5,0c-0.2,1.9-0.4,3.9-0.6,5.9c1.5-2.3,3.1-5,6-5.8c4-1,9.2-0.9,11.8,2.8
		c2.3,3.6,1.6,8.1,1.8,12.1c-3.2,0-6.4,0-9.6,0c-0.1-2.1,0.1-4.4-0.8-6.3c-2.7-2.6-8.1-0.7-8.4,3.1c-0.5,8.2-0.1,16.4-0.2,24.6
		c-3.5,0-7,0-10.5,0C488.8,344.9,488.8,332.8,488.8,320.6z"/>
	<path class="st0" d="M528.4,321.5c6.3-1.8,13.1-1.5,19.5-0.7c4.5,0.5,8.6,4,8.7,8.7c0.7,9.1,0.1,18.3,0.3,27.5c-3.5,0-7,0-10.4,0
		c0.1-1.9,0.2-3.8,0.4-5.7c-1.3,2.4-2.9,5-5.8,5.5c-4.8,0.9-10.2,1.1-14.7-1c-5-2.8-4.9-9.6-3.8-14.5c1-4.4,5.8-6.3,9.8-6.5
		c4.9-0.2,11.5-0.9,14.1,4.4c-0.3-3.4,0.4-7-0.6-10.3c-1.9-3.1-6.2-2.3-9.3-2.1c-2.1,0.3-2.3,2.7-2.8,4.2c-3.5,0-6.9,0-10.4,0
		C523.4,327.4,524.2,322.7,528.4,321.5"/>
	<path class="st0" d="M565.2,320.6c3.5,0,7,0,10.5,0c-0.2,2.3-0.3,4.6-0.4,6.9c1.3-2.6,2.7-5.4,5.7-6.4c4.5-1.5,9.8-1.3,14.1,0.8
		c3.2,1.5,4.5,5.2,4.5,8.6c0.1,8.8,0,17.7,0,26.5c-3.5,0-7,0-10.5,0c0-7.5,0-14.9,0-22.4c-0.2-2,0-4.5-1.9-5.7
		c-4.1-1.7-10.9-0.5-11.3,4.9c-0.4,7.7,0,15.4-0.2,23.2c-3.5,0-7,0-10.6,0C565.2,344.9,565.2,332.8,565.2,320.6z"/>
	<path class="st0" d="M756.3,325.3c3.4-4.8,9.9-5.1,15.2-5.2c4.9,0.2,10.8,0.2,14.2,4.2c3.5,4.6,2.9,10.8,3,16.3
		c-8.1,0-16.3,0-24.5,0c0.2,2.9-0.4,6.9,2.6,8.6c2.8,1.2,6,1,9,0.4c2.2-0.4,2.3-2.8,2.9-4.5c3.4,0,6.7,0,10.1,0
		c0.2,4.8-2,10.3-7.2,11.3c-7,1.4-14.6,1.6-21.4-0.9c-5.5-2.3-6.2-8.9-6.3-14.1C753.9,336.1,753.4,330.1,756.3,325.3"/>
	<path class="st0" d="M927.3,320.6c3.5,0,6.9,0,10.4,0c0.1,8.6-0.3,17.2,0.2,25.7c2.4,5.4,13.2,3.4,12.9-3c0.2-7.6,0-15.2,0.1-22.8
		c3.5,0,7,0,10.4,0c0,12.1,0,24.3,0,36.4c-3.5,0-6.9,0-10.4,0c0.2-2.4,0.4-4.8,0.6-7.1c-1.3,2.9-3.3,5.9-6.6,6.8
		c-4.8,1.3-10.6,1.2-14.6-2.1c-2.6-2.2-3.2-5.9-3.1-9.1C927.3,337.2,927.3,328.9,927.3,320.6z"/>
	<path class="st0" d="M1011.6,320.6c6.3-0.6,12.9-1.1,19,0.8c5.7,2,6.8,8.8,6.8,14.1c-0.1,5.8,0.4,12.1-2.7,17.3
		c-3.2,4.5-9.3,4.4-14.2,4.6c-5.1-0.1-10.7,0.1-14.9-3.2c-3.7-3.1-3.9-8.4-4-12.8c0-4.9-0.4-10,1.4-14.6
		C1004.4,323.4,1007.9,321.1,1011.6,320.6"/>
</g>
<g id="_x23_ffffffff_00000020370482345619249690000013736625377919162500_">
	<path class="st1" d="M369.3,306.2c2.2-1.9,5.3-1.5,8-1.8c0,1.2,0.1,2.4,0.1,3.7c-1.3,0.1-2.5,0.3-3.7,0.6c-0.4,1.2-0.5,2.4-0.7,3.7
		c1.5,0,3,0.1,4.5,0.1c0,1.2,0,2.5,0,3.7c-1.4,0-2.9,0-4.3,0c0,4.7,0,9.4,0,14.1c-1.7,0-3.5,0-5.2,0c0-4.7,0-9.4,0-14.2
		c-0.6,0-1.9,0-2.5,0c0-0.9,0-2.8,0-3.7c0.6,0,1.8,0,2.4,0C368.2,310.4,367.7,307.8,369.3,306.2z"/>
	<path class="st1" d="M440.1,309c5.5-5,13.5-4.3,20.4-4.5c5.9,0.2,12.6-0.4,17.5,3.6c3.6,3.2,3.7,8.3,4,12.7c-4,0-8.1,0-12.1,0
		c-0.5-2.3-1-5.3-3.8-5.8c-4.4-0.8-9.1-0.8-13.5,0c-3.1,0.5-5.2,3.4-5.3,6.4c-0.4,6.3-0.3,12.7,0,19c0.1,2.8,1.7,5.8,4.7,6.3
		c4.8,0.9,9.9,1.1,14.6-0.3c3.8-1.5,3.4-6.2,3.4-9.5c-3.9,0-7.8,0-11.7,0c0-2.8,0-5.6,0-8.4c7.9,0,15.7,0,23.6,0
		c0.1,6.3,0.7,12.8-0.6,19c-0.9,4.7-5,8.3-9.7,9c-7,1.1-14.2,1-21.3,0.6c-5.5-0.3-11.3-2.9-13.7-8.1c-2.9-6.8-1.9-14.4-2.1-21.5
		C435,321.1,434.9,313.6,440.1,309z"/>
	<path class="st1" d="M631.3,305c3.5,0,7,0,10.4,0c0,17.3,0,34.7,0,52c-3.4,0-6.8,0-10.2,0c0.1-2.2,0.3-4.5,0.5-6.7
		c-1.4,2.9-3.2,6-6.6,6.6c-5,0.9-10.8,0.9-15.1-2.3c-3.4-2.6-3.7-7.3-3.9-11.2c-0.1-5-0.4-10,0.7-14.9c0.8-4.1,4.2-7.3,8.3-7.9
		c5.8-1.3,13.4-0.7,16,5.6C631.2,319.2,631.3,312.1,631.3,305 M619.7,328.7c-2.3,0.8-2.6,3.6-2.8,5.7c-0.2,4-0.4,8.1,0.6,12
		c0.8,3,4.4,3.4,7,3.3c2.5,0,5.6-0.9,6.2-3.7c0.8-4.6,0.8-9.4,0-14C629.6,327.2,623.3,327.9,619.7,328.7z"/>
	<path class="st1" d="M666.3,305c13.8,0,27.6,0,41.4,0c0,3.4,0,6.9,0,10.3c-5,0-10,0-15,0c0,13.9,0,27.8,0,41.7c-4,0-8,0-12.1,0
		c0-13.9,0-27.8,0-41.7c-4.8,0-9.6,0-14.3,0C666.3,311.9,666.3,308.4,666.3,305z"/>
	<path class="st1" d="M800.8,307.8c4.4-3.7,10.6-3.2,16-3.3c0,2.5,0,5.1,0.1,7.6c-2.3,0-5-0.6-7,0.8c-1.9,2-1.1,5.1-1.3,7.6
		c2.9,0,5.8,0,8.8,0c0,2.5,0,5.1,0,7.6c-2.9,0-5.8,0-8.8,0c0,9.6,0,19.2,0,28.8c-3.5,0-7,0-10.5,0c0-9.6,0-19.2,0-28.8
		c-1.7,0-3.4,0-5.1,0c0-2.5,0-5.1,0-7.6c1.7,0,3.4,0,5.1,0C798.3,316.3,797.5,311.1,800.8,307.8z"/>
	<path class="st1" d="M888.6,305c6.1,0,12.2,0,18.2,0c5.6,17.3,11.3,34.7,17,52c-4.2,0-8.3,0-12.4,0c-1-3.2-2-6.3-3-9.5
		c-7-0.1-14-0.1-21,0c-1,3.2-2,6.3-2.9,9.5c-4.2,0-8.4,0-12.6,0C877.4,339.7,883,322.3,888.6,305 M890.1,338.7c5.2,0,10.5,0,15.7,0
		c-2.7-8.3-5.3-16.5-7.9-24.8C895.3,322.2,892.7,330.4,890.1,338.7z"/>
	<path class="st1" d="M712.7,305c3.5,0,7,0,10.5,0c0,7.5,0,15.1,0,22.6c1.3-2.7,2.7-5.8,5.8-6.7c4.1-1.1,8.7-1.1,12.7,0.5
		c3.7,1.5,5.5,5.6,5.5,9.4c0.1,8.7,0,17.5,0,26.2c-3.5,0-7,0-10.5,0c0-7.5,0-15,0-22.5c0-2.1-0.2-5-2.6-5.8
		c-3.9-1.4-10.2-0.4-10.7,4.6c-0.6,7.8-0.1,15.7-0.3,23.6c-3.5,0-7,0-10.5,0C712.7,339.7,712.7,322.3,712.7,305z"/>
	<path class="st1" d="M1064.6,305c4,0,8.1,0,12.1,0c0,17.3,0,34.7,0,52c-4,0-8.1,0-12.1,0C1064.6,339.7,1064.6,322.3,1064.6,305z"/>
	<path class="st1" d="M1081.6,305c4.1,0,8.2,0,12.3,0c4.4,14.1,9,28.1,12.9,42.3c3.9-14.2,8.5-28.2,13-42.3c4.2,0,8.4,0,12.6,0
		c-5.4,17.3-10.8,34.7-16.3,52c-6.2,0-12.4,0-18.6,0C1092.2,339.7,1086.9,322.3,1081.6,305z"/>
	<path class="st1" d="M383.6,312.6c3.4-0.6,7.1-0.8,10.5,0.2c3.4,1.4,3.4,5.6,3.3,8.7c-0.1,2.9-0.1,7-3.4,8.2c-3.7,1-8,1.1-11.6-0.2
		c-3.3-1.7-2.8-5.9-2.9-9C379.4,317.4,380.1,313.4,383.6,312.6 M385.8,316.6c-1.4,3-2.4,10.5,2.8,10.1c4.5,0.4,3.6-5.2,3.4-8.1
		C392,315.4,387.8,315.6,385.8,316.6z"/>
	<path class="st1" d="M400.9,312.4c1.8,0,3.5,0,5.3,0c-0.1,0.7-0.4,2.1-0.5,2.8c1.6-2.6,4.8-3.9,7.7-2.5c2.6,1.3,2,4.7,2.3,7.1
		c-1.6,0-3.1,0-4.7,0c0.6-3-2.9-5.4-4.7-2.2c-0.5,4.2-0.1,8.5-0.2,12.7c-1.7,0-3.5,0-5.2,0C400.9,324.3,400.9,318.4,400.9,312.4z"/>
	<path class="st1" d="M825.5,312.8c3.5,0,6.9,0,10.4,0c0,2.6,0,5.2,0,7.8c4.7,0,9.4,0,14.1,0c0,2.5,0,5.1,0,7.6c-4.7,0-9.4,0-14.1,0
		c0.1,6.4-0.3,12.9,0.2,19.3c0.2,3,4.9,3.1,6.4,1c0.8-1.9,0.6-3.9,0.7-5.9c2.8,0,5.6,0,8.5,0c0,4.5,0.5,10.4-4,13.1
		c-4.4,2.2-9.5,1.9-14.2,1.5c-4-0.3-7.8-3.4-7.8-7.6c-0.2-7.1,0-14.2-0.1-21.4c-1.6,0-3.2,0-4.7,0c0-2.5,0-5.1,0-7.6
		c1.6,0,3.1,0,4.7,0C825.5,318,825.5,315.4,825.5,312.8z"/>
	<path class="st1" d="M971.1,312.8c3.5,0,7,0,10.5,0c0,2.6,0,5.2,0,7.8c4.7,0,9.4,0,14.1,0c0,2.5,0,5.1,0,7.6c-4.7,0-9.4,0-14.1,0
		c0.1,6.4-0.2,12.8,0.2,19.1c0.1,3.1,4.6,3.2,6.2,1.3c1-1.9,0.7-4.1,0.9-6.1c2.8,0,5.6,0,8.4,0c0,4.6,0.4,10.7-4.3,13.3
		c-4.5,2-9.8,1.8-14.6,1.2c-3.8-0.5-7.2-3.6-7.2-7.6c-0.2-7.1,0-14.2-0.1-21.2c-1.6,0-3.1,0-4.7,0c0-2.5,0-5.1,0-7.6
		c1.6,0,3.1,0,4.7,0C971.1,318,971.1,315.4,971.1,312.8z"/>
	<path class="st1" d="M488.8,320.6c3.5,0,7,0,10.5,0c-0.2,1.9-0.4,3.9-0.6,5.9c1.5-2.3,3.1-5,6-5.8c4-1,9.2-0.9,11.8,2.8
		c2.3,3.6,1.6,8.1,1.8,12.1c-3.2,0-6.4,0-9.6,0c-0.1-2.1,0.1-4.4-0.8-6.3c-2.7-2.6-8.1-0.7-8.4,3.1c-0.5,8.2-0.1,16.4-0.2,24.6
		c-3.5,0-7,0-10.5,0C488.8,344.9,488.8,332.8,488.8,320.6z"/>
	<path class="st1" d="M528.4,321.5c6.3-1.8,13.1-1.5,19.5-0.7c4.5,0.5,8.6,4,8.7,8.7c0.7,9.1,0.1,18.3,0.3,27.5c-3.5,0-7,0-10.4,0
		c0.1-1.9,0.2-3.8,0.4-5.7c-1.3,2.4-2.9,5-5.8,5.5c-4.8,0.9-10.2,1.1-14.7-1c-5-2.8-4.9-9.6-3.8-14.5c1-4.4,5.8-6.3,9.8-6.5
		c4.9-0.2,11.5-0.9,14.1,4.4c-0.3-3.4,0.4-7-0.6-10.3c-1.9-3.1-6.2-2.3-9.3-2.1c-2.1,0.3-2.3,2.7-2.8,4.2c-3.5,0-6.9,0-10.4,0
		C523.4,327.4,524.2,322.7,528.4,321.5 M535.6,341.6c-3.4,0.4-3.6,4.8-2.4,7.2c1.5,1.9,4.2,1.6,6.3,1.8c2.3-0.1,5.4,0.1,6.6-2.4
		c0.6-2,0.8-4.9-1.3-6.1C541.8,341,538.6,341.2,535.6,341.6z"/>
	<path class="st1" d="M565.2,320.6c3.5,0,7,0,10.5,0c-0.2,2.3-0.3,4.6-0.4,6.9c1.3-2.6,2.7-5.4,5.7-6.4c4.5-1.5,9.8-1.3,14.1,0.8
		c3.2,1.5,4.5,5.2,4.5,8.6c0.1,8.8,0,17.7,0,26.5c-3.5,0-7,0-10.5,0c0-7.5,0-14.9,0-22.4c-0.2-2,0-4.5-1.9-5.7
		c-4.1-1.7-10.9-0.5-11.3,4.9c-0.4,7.7,0,15.4-0.2,23.2c-3.5,0-7,0-10.6,0C565.2,344.9,565.2,332.8,565.2,320.6z"/>
	<path class="st1" d="M756.3,325.3c3.4-4.8,9.9-5.1,15.2-5.2c4.9,0.2,10.8,0.2,14.2,4.2c3.5,4.6,2.9,10.8,3,16.3
		c-8.1,0-16.3,0-24.5,0c0.2,2.9-0.4,6.9,2.6,8.6c2.8,1.2,6,1,9,0.4c2.2-0.4,2.3-2.8,2.9-4.5c3.4,0,6.7,0,10.1,0
		c0.2,4.8-2,10.3-7.2,11.3c-7,1.4-14.6,1.6-21.4-0.9c-5.5-2.3-6.2-8.9-6.3-14.1C753.9,336.1,753.4,330.1,756.3,325.3 M767,328.2
		c-2.7,0.9-2.4,4.2-2.7,6.5c4.8,0,9.5,0,14.3,0c-0.3-2.2,0.2-5.7-2.5-6.5C773.1,327.5,769.9,327.4,767,328.2z"/>
	<path class="st1" d="M927.3,320.6c3.5,0,6.9,0,10.4,0c0.1,8.6-0.3,17.2,0.2,25.7c2.4,5.4,13.2,3.4,12.9-3c0.2-7.6,0-15.2,0.1-22.8
		c3.5,0,7,0,10.4,0c0,12.1,0,24.3,0,36.4c-3.5,0-6.9,0-10.4,0c0.2-2.4,0.4-4.8,0.6-7.1c-1.3,2.9-3.3,5.9-6.6,6.8
		c-4.8,1.3-10.6,1.2-14.6-2.1c-2.6-2.2-3.2-5.9-3.1-9.1C927.3,337.2,927.3,328.9,927.3,320.6z"/>
	<path class="st1" d="M1011.6,320.6c6.3-0.6,12.9-1.1,19,0.8c5.7,2,6.8,8.8,6.8,14.1c-0.1,5.8,0.4,12.1-2.7,17.3
		c-3.2,4.5-9.3,4.4-14.2,4.6c-5.1-0.1-10.7,0.1-14.9-3.2c-3.7-3.1-3.9-8.4-4-12.8c0-4.9-0.4-10,1.4-14.6
		C1004.4,323.4,1007.9,321.1,1011.6,320.6 M1014.1,329.2c-2.6,3.1-1.6,7.6-1.9,11.3c0.1,3.2,0,8.3,4.1,8.9c3.1,0.3,7.8,1,9.5-2.4
		c1.3-3.7,0.9-7.7,1-11.5c-0.1-2.6-0.3-6.3-3.4-7.1C1020.4,327.8,1016.8,327.4,1014.1,329.2z"/>
</g>
<g id="_x23_ffffffff">
	<path class="st2" d="M369.3,306.2c2.2-1.9,5.3-1.5,8-1.8c0,1.2,0.1,2.4,0.1,3.7c-1.3,0.1-2.5,0.3-3.7,0.6c-0.4,1.2-0.5,2.4-0.7,3.7
		c1.5,0,3,0.1,4.5,0.1c0,1.2,0,2.5,0,3.7c-1.4,0-2.9,0-4.3,0c0,4.7,0,9.4,0,14.1c-1.7,0-3.5,0-5.2,0c0-4.7,0-9.4,0-14.2
		c-0.6,0-1.9,0-2.5,0c0-0.9,0-2.8,0-3.7c0.6,0,1.8,0,2.4,0C368.2,310.4,367.7,307.8,369.3,306.2z"/>
	<path class="st2" d="M440.1,309c5.5-5,13.5-4.3,20.4-4.5c5.9,0.2,12.6-0.4,17.5,3.6c3.6,3.2,3.7,8.3,4,12.7c-4,0-8.1,0-12.1,0
		c-0.5-2.3-1-5.3-3.8-5.8c-4.4-0.8-9.1-0.8-13.5,0c-3.1,0.5-5.2,3.4-5.3,6.4c-0.4,6.3-0.3,12.7,0,19c0.1,2.8,1.7,5.8,4.7,6.3
		c4.8,0.9,9.9,1.1,14.6-0.3c3.8-1.5,3.4-6.2,3.4-9.5c-3.9,0-7.8,0-11.7,0c0-2.8,0-5.6,0-8.4c7.9,0,15.7,0,23.6,0
		c0.1,6.3,0.7,12.8-0.6,19c-0.9,4.7-5,8.3-9.7,9c-7,1.1-14.2,1-21.3,0.6c-5.5-0.3-11.3-2.9-13.7-8.1c-2.9-6.8-1.9-14.4-2.1-21.5
		C435,321.1,434.9,313.6,440.1,309z"/>
	<path class="st2" d="M631.3,305c3.5,0,7,0,10.4,0c0,17.3,0,34.7,0,52c-3.4,0-6.8,0-10.2,0c0.1-2.2,0.3-4.5,0.5-6.7
		c-1.4,2.9-3.2,6-6.6,6.6c-5,0.9-10.8,0.9-15.1-2.3c-3.4-2.6-3.7-7.3-3.9-11.2c-0.1-5-0.4-10,0.7-14.9c0.8-4.1,4.2-7.3,8.3-7.9
		c5.8-1.3,13.4-0.7,16,5.6C631.2,319.2,631.3,312.1,631.3,305 M619.7,328.7c-2.3,0.8-2.6,3.6-2.8,5.7c-0.2,4-0.4,8.1,0.6,12
		c0.8,3,4.4,3.4,7,3.3c2.5,0,5.6-0.9,6.2-3.7c0.8-4.6,0.8-9.4,0-14C629.6,327.2,623.3,327.9,619.7,328.7z"/>
	<path class="st2" d="M666.3,305c13.8,0,27.6,0,41.4,0c0,3.4,0,6.9,0,10.3c-5,0-10,0-15,0c0,13.9,0,27.8,0,41.7c-4,0-8,0-12.1,0
		c0-13.9,0-27.8,0-41.7c-4.8,0-9.6,0-14.3,0C666.3,311.9,666.3,308.4,666.3,305z"/>
	<path class="st2" d="M800.8,307.8c4.4-3.7,10.6-3.2,16-3.3c0,2.5,0,5.1,0.1,7.6c-2.3,0-5-0.6-7,0.8c-1.9,2-1.1,5.1-1.3,7.6
		c2.9,0,5.8,0,8.8,0c0,2.5,0,5.1,0,7.6c-2.9,0-5.8,0-8.8,0c0,9.6,0,19.2,0,28.8c-3.5,0-7,0-10.5,0c0-9.6,0-19.2,0-28.8
		c-1.7,0-3.4,0-5.1,0c0-2.5,0-5.1,0-7.6c1.7,0,3.4,0,5.1,0C798.3,316.3,797.5,311.1,800.8,307.8z"/>
	<path class="st2" d="M888.6,305c6.1,0,12.2,0,18.2,0c5.6,17.3,11.3,34.7,17,52c-4.2,0-8.3,0-12.4,0c-1-3.2-2-6.3-3-9.5
		c-7-0.1-14-0.1-21,0c-1,3.2-2,6.3-2.9,9.5c-4.2,0-8.4,0-12.6,0C877.4,339.7,883,322.3,888.6,305 M890.1,338.7c5.2,0,10.5,0,15.7,0
		c-2.7-8.3-5.3-16.5-7.9-24.8C895.3,322.2,892.7,330.4,890.1,338.7z"/>
	<path class="st2" d="M712.7,305c3.5,0,7,0,10.5,0c0,7.5,0,15.1,0,22.6c1.3-2.7,2.7-5.8,5.8-6.7c4.1-1.1,8.7-1.1,12.7,0.5
		c3.7,1.5,5.5,5.6,5.5,9.4c0.1,8.7,0,17.5,0,26.2c-3.5,0-7,0-10.5,0c0-7.5,0-15,0-22.5c0-2.1-0.2-5-2.6-5.8
		c-3.9-1.4-10.2-0.4-10.7,4.6c-0.6,7.8-0.1,15.7-0.3,23.6c-3.5,0-7,0-10.5,0C712.7,339.7,712.7,322.3,712.7,305z"/>
	<path class="st2" d="M1064.6,305c4,0,8.1,0,12.1,0c0,17.3,0,34.7,0,52c-4,0-8.1,0-12.1,0C1064.6,339.7,1064.6,322.3,1064.6,305z"/>
	<path class="st2" d="M1081.6,305c4.1,0,8.2,0,12.3,0c4.4,14.1,9,28.1,12.9,42.3c3.9-14.2,8.5-28.2,13-42.3c4.2,0,8.4,0,12.6,0
		c-5.4,17.3-10.8,34.7-16.3,52c-6.2,0-12.4,0-18.6,0C1092.2,339.7,1086.9,322.3,1081.6,305z"/>
	<path class="st2" d="M383.6,312.6c3.4-0.6,7.1-0.8,10.5,0.2c3.4,1.4,3.4,5.6,3.3,8.7c-0.1,2.9-0.1,7-3.4,8.2c-3.7,1-8,1.1-11.6-0.2
		c-3.3-1.7-2.8-5.9-2.9-9C379.4,317.4,380.1,313.4,383.6,312.6 M385.8,316.6c-1.4,3-2.4,10.5,2.8,10.1c4.5,0.4,3.6-5.2,3.4-8.1
		C392,315.4,387.8,315.6,385.8,316.6z"/>
	<path class="st2" d="M400.9,312.4c1.8,0,3.5,0,5.3,0c-0.1,0.7-0.4,2.1-0.5,2.8c1.6-2.6,4.8-3.9,7.7-2.5c2.6,1.3,2,4.7,2.3,7.1
		c-1.6,0-3.1,0-4.7,0c0.6-3-2.9-5.4-4.7-2.2c-0.5,4.2-0.1,8.5-0.2,12.7c-1.7,0-3.5,0-5.2,0C400.9,324.3,400.9,318.4,400.9,312.4z"/>
	<path class="st2" d="M825.5,312.8c3.5,0,6.9,0,10.4,0c0,2.6,0,5.2,0,7.8c4.7,0,9.4,0,14.1,0c0,2.5,0,5.1,0,7.6c-4.7,0-9.4,0-14.1,0
		c0.1,6.4-0.3,12.9,0.2,19.3c0.2,3,4.9,3.1,6.4,1c0.8-1.9,0.6-3.9,0.7-5.9c2.8,0,5.6,0,8.5,0c0,4.5,0.5,10.4-4,13.1
		c-4.4,2.2-9.5,1.9-14.2,1.5c-4-0.3-7.8-3.4-7.8-7.6c-0.2-7.1,0-14.2-0.1-21.4c-1.6,0-3.2,0-4.7,0c0-2.5,0-5.1,0-7.6
		c1.6,0,3.1,0,4.7,0C825.5,318,825.5,315.4,825.5,312.8z"/>
	<path class="st2" d="M971.1,312.8c3.5,0,7,0,10.5,0c0,2.6,0,5.2,0,7.8c4.7,0,9.4,0,14.1,0c0,2.5,0,5.1,0,7.6c-4.7,0-9.4,0-14.1,0
		c0.1,6.4-0.2,12.8,0.2,19.1c0.1,3.1,4.6,3.2,6.2,1.3c1-1.9,0.7-4.1,0.9-6.1c2.8,0,5.6,0,8.4,0c0,4.6,0.4,10.7-4.3,13.3
		c-4.5,2-9.8,1.8-14.6,1.2c-3.8-0.5-7.2-3.6-7.2-7.6c-0.2-7.1,0-14.2-0.1-21.2c-1.6,0-3.1,0-4.7,0c0-2.5,0-5.1,0-7.6
		c1.6,0,3.1,0,4.7,0C971.1,318,971.1,315.4,971.1,312.8z"/>
	<path class="st2" d="M488.8,320.6c3.5,0,7,0,10.5,0c-0.2,1.9-0.4,3.9-0.6,5.9c1.5-2.3,3.1-5,6-5.8c4-1,9.2-0.9,11.8,2.8
		c2.3,3.6,1.6,8.1,1.8,12.1c-3.2,0-6.4,0-9.6,0c-0.1-2.1,0.1-4.4-0.8-6.3c-2.7-2.6-8.1-0.7-8.4,3.1c-0.5,8.2-0.1,16.4-0.2,24.6
		c-3.5,0-7,0-10.5,0C488.8,344.9,488.8,332.8,488.8,320.6z"/>
	<path class="st2" d="M528.4,321.5c6.3-1.8,13.1-1.5,19.5-0.7c4.5,0.5,8.6,4,8.7,8.7c0.7,9.1,0.1,18.3,0.3,27.5c-3.5,0-7,0-10.4,0
		c0.1-1.9,0.2-3.8,0.4-5.7c-1.3,2.4-2.9,5-5.8,5.5c-4.8,0.9-10.2,1.1-14.7-1c-5-2.8-4.9-9.6-3.8-14.5c1-4.4,5.8-6.3,9.8-6.5
		c4.9-0.2,11.5-0.9,14.1,4.4c-0.3-3.4,0.4-7-0.6-10.3c-1.9-3.1-6.2-2.3-9.3-2.1c-2.1,0.3-2.3,2.7-2.8,4.2c-3.5,0-6.9,0-10.4,0
		C523.4,327.4,524.2,322.7,528.4,321.5 M535.6,341.6c-3.4,0.4-3.6,4.8-2.4,7.2c1.5,1.9,4.2,1.6,6.3,1.8c2.3-0.1,5.4,0.1,6.6-2.4
		c0.6-2,0.8-4.9-1.3-6.1C541.8,341,538.6,341.2,535.6,341.6z"/>
	<path class="st2" d="M565.2,320.6c3.5,0,7,0,10.5,0c-0.2,2.3-0.3,4.6-0.4,6.9c1.3-2.6,2.7-5.4,5.7-6.4c4.5-1.5,9.8-1.3,14.1,0.8
		c3.2,1.5,4.5,5.2,4.5,8.6c0.1,8.8,0,17.7,0,26.5c-3.5,0-7,0-10.5,0c0-7.5,0-14.9,0-22.4c-0.2-2,0-4.5-1.9-5.7
		c-4.1-1.7-10.9-0.5-11.3,4.9c-0.4,7.7,0,15.4-0.2,23.2c-3.5,0-7,0-10.6,0C565.2,344.9,565.2,332.8,565.2,320.6z"/>
	<path class="st2" d="M756.3,325.3c3.4-4.8,9.9-5.1,15.2-5.2c4.9,0.2,10.8,0.2,14.2,4.2c3.5,4.6,2.9,10.8,3,16.3
		c-8.1,0-16.3,0-24.5,0c0.2,2.9-0.4,6.9,2.6,8.6c2.8,1.2,6,1,9,0.4c2.2-0.4,2.3-2.8,2.9-4.5c3.4,0,6.7,0,10.1,0
		c0.2,4.8-2,10.3-7.2,11.3c-7,1.4-14.6,1.6-21.4-0.9c-5.5-2.3-6.2-8.9-6.3-14.1C753.9,336.1,753.4,330.1,756.3,325.3 M767,328.2
		c-2.7,0.9-2.4,4.2-2.7,6.5c4.8,0,9.5,0,14.3,0c-0.3-2.2,0.2-5.7-2.5-6.5C773.1,327.5,769.9,327.4,767,328.2z"/>
	<path class="st2" d="M927.3,320.6c3.5,0,6.9,0,10.4,0c0.1,8.6-0.3,17.2,0.2,25.7c2.4,5.4,13.2,3.4,12.9-3c0.2-7.6,0-15.2,0.1-22.8
		c3.5,0,7,0,10.4,0c0,12.1,0,24.3,0,36.4c-3.5,0-6.9,0-10.4,0c0.2-2.4,0.4-4.8,0.6-7.1c-1.3,2.9-3.3,5.9-6.6,6.8
		c-4.8,1.3-10.6,1.2-14.6-2.1c-2.6-2.2-3.2-5.9-3.1-9.1C927.3,337.2,927.3,328.9,927.3,320.6z"/>
	<path class="st2" d="M1011.6,320.6c6.3-0.6,12.9-1.1,19,0.8c5.7,2,6.8,8.8,6.8,14.1c-0.1,5.8,0.4,12.1-2.7,17.3
		c-3.2,4.5-9.3,4.4-14.2,4.6c-5.1-0.1-10.7,0.1-14.9-3.2c-3.7-3.1-3.9-8.4-4-12.8c0-4.9-0.4-10,1.4-14.6
		C1004.4,323.4,1007.9,321.1,1011.6,320.6 M1014.1,329.2c-2.6,3.1-1.6,7.6-1.9,11.3c0.1,3.2,0,8.3,4.1,8.9c3.1,0.3,7.8,1,9.5-2.4
		c1.3-3.7,0.9-7.7,1-11.5c-0.1-2.6-0.3-6.3-3.4-7.1C1020.4,327.8,1016.8,327.4,1014.1,329.2z"/>
</g>
<g id="_x23_ffffffff_00000021079779584836331360000002149592571718907520_">
	<path class="st3" d="M295.2,8.5h24.9c10.7,1.7,20.5,8.1,26.3,17.2c4,6.2,5.6,13.6,6,20.8c0.4,3.8-1.8,7.2-3.3,10.5
		c-4.1,8.3-11,16.1-20.5,18c-10.5,2-21-1.3-30.8-4.8c5-3.2,10.7-6.8,12.1-12.9c0.6-3.2-0.2-8.3-4.4-8.1c-6.2,0.4-11.7,4-16.2,8.2
		c-9.9,9.2-16.3,21.3-23.5,32.5c-2.2,3.5-4.6,6.9-6.2,10.7c-6.1,14.6-12.3,29.2-18.4,43.8c9.7,1.4,20.3,3.4,29.6-0.8
		c0.9,8.2,1.9,17.3-2.7,24.6c-2.3,3.8-6.4,6.2-10.7,7.1c-9.2,2.6-18.9,1.1-28-1.1c-16,39.6-31.9,79.3-50.4,117.8
		c-8.8,18.4-18.6,36.5-31.9,52c-15.5,18.6-37.2,33-61.8,35.4H67.9c-16.5-1.6-33.2-7.4-45.1-19.4C14.6,352.1,10,341,8.5,329.7v-16.9
		c1.7-11.5,7.3-22.6,16-30.4c7.3-6.5,17.3-9.6,27-9.1c10.3,0.2,20,4.7,28.1,10.9c-5.5,1.4-11.3,4-13.8,9.5c-1.6,3.7-3,8.9,0.2,12.1
		c4.2,3.4,10.1,3,15.1,2c11.2-2.6,20.7-10,28.6-18.1c12.6-13.2,22.9-28.6,31.1-44.9c3.8-7.7,7.7-15.3,11.1-23.1
		c8.5-19.9,17.2-39.6,24.7-59.9c-8.7-0.4-18.4,0.6-25,6.8c-6.2,6.3-6.8,15.8-6.9,24.2c-10.2-8.6-17.2-21.7-16.2-35.3
		c0.7-11.9,9.6-22.6,21.1-25.6c12.8-3.4,25.9,0.3,38.7,1.5c7.1-17.4,14.8-34.6,23.7-51.3c12.6-24.3,28.6-48.1,52.3-62.7
		C273.6,13.5,284.3,10.1,295.2,8.5z"/>
	<path class="st3" d="M849.2,64.6c50.9,0,101.7,0,152.6,0c0,16.9,0,33.7,0,50.6c-30.5,0-61,0-91.4,0c0,9.6,0,19.2,0,28.7
		c26.3,0,52.5,0,78.8,0c0,15.9,0,31.7,0,47.6c-26.3,0-52.5,0-78.8,0c0,23.5,0,47.1,0,70.6c-20.4,0-40.8,0-61.1,0
		c0-13.2-0.1-26.4,0.1-39.6c-6.9,14.3-16.5,27.9-29.8,37c-10.3,6.9-24.1,10.1-35.8,5c-9.4-4.1-15-13.8-16.9-23.5
		c-2.6-12.9-1.1-26.4,2-39.1c3.2-12.2,8.8-23.4,14.6-34.5c2-4.1,4.6-8.1,5-12.8c-5.1-1.5-8.8,3.4-12,6.6
		c-12,13.8-20.6,30.2-28.5,46.7c-7.7,16.6-14.2,33.8-17.9,51.7c-0.4,3-3.9,3.7-6.4,3.7c-9.4-0.1-18.5-5.8-22.9-14.1
		c-3.3-6-4.2-13-3.9-19.8c0.7-12.9,2.2-25.7,4.9-38.3c-3.4,1.6-7,2.8-10.6,3.5c-3.5,18.4-11.1,36.5-24.3,50
		c-9.8,10-23.1,17-37.2,17.7c-11.5,0.7-23.5-3-31.9-11c-6.8-6.2-11.3-14.7-13.5-23.6c-7.3,11.4-16.7,22.1-28.9,28.5
		c-10.1,5.3-23,5.7-32.7-0.7c-9.2-6.1-14-16.8-15.9-27.3c-3.2-18.1,0.1-36.7,5.2-54.1c3.5-10.7,8.3-21.8,17.6-28.7
		c6.5-5,15.3-5.4,23-3.9c6.5,1.3,12.9,3.6,17.9,8.1c4.4,3.9,6.1,10.5,4.1,16c-2.5,7.4-8.2,13.1-12.6,19.4c-6,7.9-10,17.6-10.3,27.5
		c0,3.6,0.8,8.6,4.9,9.5c5.6,0.6,10.4-3.5,14-7.3c5.2-6,9.9-12.8,12.4-20.3c2.3-14.6,7.5-28.9,16.8-40.5
		c11-13.8,27.4-23.7,45.1-25.6c1.9-8,7.3-15.7,15.5-18c5.9-2.1,12.6,0,17,4.1c6.6,6,10.3,14.4,12.7,22.8c3.8,13.8,4.2,28.2,2.9,42.4
		c4.3-1.9,8.5-4.4,11.7-8c3.5-3.6,4.8-8.7,6.8-13.2c3.1-7.2,6.7-14.3,11.7-20.4c7.7-8.4,18.7-13.3,29.8-15.4c5-0.7,10.5-1.4,15.2,1
		c2.8,1.5,2.9,5.1,1.5,7.6c-7.8,16.7-14.9,33.6-21.2,50.8c10.7-17.9,22.9-35.3,38.7-49c7.9-6.6,17-12.8,27.5-14.1
		c5.5-0.6,12,0.1,15.6,4.8c4.6,6.1,4.7,14.4,4.2,21.7c-1.7,18.9-10.2,36.3-18.5,53.1c-3.7,7.8-8.1,16.2-6.7,25.2
		c0.2,2.7,2.3,5.8,5.4,5.1c6.2-1.3,10.5-6.5,14.5-11c8.7-11,15.7-23.6,20.1-36.9C849.4,142.2,849.1,103.4,849.2,64.6 M627.9,173.6
		c-4,11.5-6,23.9-4,36c1,5.8,4,12.3,10.1,14.1c5.4,1.8,11-1.2,14.6-5.2c6.7-7.6,10.2-17.4,12.4-27.2c0.2-2.3,1.8-5.2-0.4-7
		c-9.2-10.2-14.7-23.4-16.6-37C636.2,154.4,631.3,163.9,627.9,173.6z"/>
	<path class="st3" d="M1013.6,64.6c20.4,0,40.8,0,61.1,0c0,65.8,0,131.7,0,197.5c-20.4,0-40.8,0-61.2,0
		C1013.6,196.2,1013.6,130.4,1013.6,64.6z"/>
	<path class="st3" d="M1083.7,64.6c24,0,47.9,0,71.9,0c10,17.8,20.9,35.2,29,53.9c8.5-18.5,18.6-36.1,28.4-53.9
		c22.8,0,45.5,0,68.3,0c-20.9,30.9-41.8,61.8-62.7,92.7c23.3,34.7,46.6,69.3,69.9,104l0-1.5v2.3c-24.5,0-49,0-73.5,0
		c-11.3-19.6-23.9-38.5-32.9-59.2c-9.8,20.6-22.4,39.6-33.9,59.2c-23.7,0-47.4,0-71.1,0c23.9-34.9,47.7-69.9,71.6-104.8
		C1127,126.3,1105.3,95.5,1083.7,64.6z"/>
	<path class="st3" d="M555.7,75.7c9.1-1.5,18.9-0.9,27.2,3.3c6.2,3.1,11.1,9.4,11.2,16.6c0.2,8.7-5.3,16.4-12,21.5
		c-7.6,5.6-17.1,9.5-26.6,8.2c-9.6-2.2-17.8-9.6-21-18.9c-2.8-8.2-0.1-17.9,6.3-23.6C544.9,79,550.2,76.7,555.7,75.7z"/>
	<path class="st3" d="M302.3,115.3c11-3.8,25.3,1.7,29.2,13c2.9,9.4-2.2,18.6-6.2,26.8c-8,15.4-14.5,31.8-15.7,49.2
		c-0.1,5.1-0.4,11.4,3.9,15c4.6,2.8,9.1-1.7,11.8-5c11-14.2,16.4-31.6,21.7-48.5c3.9-12.1,6.2-24.7,6.2-37.4
		c-0.1-3.4,0.3-7.6,3.6-9.5c4.8-2.5,10.4-0.2,15,1.8c10,5.2,18.9,13.5,23.1,24.2c3.1,10,1.9,20.9-1.8,30.5
		c-4.1,11.6-11.5,22.3-11.8,35c0,4.2,0.8,9.8,5.3,11.3c5,1,9.7-2.4,13-5.8c1.6-12.8,4.9-26.4,13.9-36.2c5.3-5.9,14.1-8.8,21.6-5.5
		c4.7,2.2,9.5,5.9,10.9,11.1c-1.4,4.7-3.6,9.2-4.1,14.2c-0.8,5.7-0.4,12.1,3.2,16.9c3.2,4.4,10.2,5.7,14.7,2.4
		c3.5-2.6,4.6-7.3,4.5-11.5c-0.3-7.8-4.3-14.9-9.2-20.7c-5.7-6.8-13.4-11.5-20.5-16.5c-5.3-3.7-10.4-8.4-12.2-14.8
		c-2.4-9.5,1.4-19.9,8.7-26.2c9.3-8.2,22.2-11,34.3-10.9c12.3,0.1,25.4,2.3,35.5,9.8c7.1,5.1,11.9,13.6,11.4,22.4
		c-0.5,7.8-3.6,16.2-10.4,20.6c-3.5,2.3-9.5,4-12.3-0.1c-3.9-9.1-7.3-18.6-13-26.7c-2-2.7-4.5-5.8-8.1-5.9c-3.2-0.6-6.6,1.7-7.1,4.9
		c-0.8,3.3,0.9,6.6,2.8,9.2c6.2,8.5,15.9,13.4,22.6,21.5c18.1,20,16.7,54.3-2.9,72.8c-11.1,10.7-27.3,14.9-42.4,12.7
		c-13.8-1.4-27.1-9-34.6-20.8c-6.8,8.1-15.2,15.3-25.2,19c-10,3.7-21.9,2.3-30.6-4.1c-8.4-6.1-13.3-16-15.2-26.1
		c-5.8,10.4-13.2,20.6-23.8,26.6c-8.5,4.8-20,5.6-28.2-0.3c-7.1-5.1-10.4-13.8-12.2-22c-3-15.3-1.6-31.1,0.9-46.3
		c3-17.7,6.6-35.6,13.8-52.1C290,126.3,294.3,118.3,302.3,115.3z"/>
</g>
<g id="_x23_ffffffff_00000047058588523709749360000011103003823288236716_">
	<path class="st2" d="M295.2,8.5h24.9c10.7,1.7,20.5,8.1,26.3,17.2c4,6.2,5.6,13.6,6,20.8c0.4,3.8-1.8,7.2-3.3,10.5
		c-4.1,8.3-11,16.1-20.5,18c-10.5,2-21-1.3-30.8-4.8c5-3.2,10.7-6.8,12.1-12.9c0.6-3.2-0.2-8.3-4.4-8.1c-6.2,0.4-11.7,4-16.2,8.2
		c-9.9,9.2-16.3,21.3-23.5,32.5c-2.2,3.5-4.6,6.9-6.2,10.7c-6.1,14.6-12.3,29.2-18.4,43.8c9.7,1.4,20.3,3.4,29.6-0.8
		c0.9,8.2,1.9,17.3-2.7,24.6c-2.3,3.8-6.4,6.2-10.7,7.1c-9.2,2.6-18.9,1.1-28-1.1c-16,39.6-31.9,79.3-50.4,117.8
		c-8.8,18.4-18.6,36.5-31.9,52c-15.5,18.6-37.2,33-61.8,35.4H67.9c-16.5-1.6-33.2-7.4-45.1-19.4C14.6,352.1,10,341,8.5,329.7v-16.9
		c1.7-11.5,7.3-22.6,16-30.4c7.3-6.5,17.3-9.6,27-9.1c10.3,0.2,20,4.7,28.1,10.9c-5.5,1.4-11.3,4-13.8,9.5c-1.6,3.7-3,8.9,0.2,12.1
		c4.2,3.4,10.1,3,15.1,2c11.2-2.6,20.7-10,28.6-18.1c12.6-13.2,22.9-28.6,31.1-44.9c3.8-7.7,7.7-15.3,11.1-23.1
		c8.5-19.9,17.2-39.6,24.7-59.9c-8.7-0.4-18.4,0.6-25,6.8c-6.2,6.3-6.8,15.8-6.9,24.2c-10.2-8.6-17.2-21.7-16.2-35.3
		c0.7-11.9,9.6-22.6,21.1-25.6c12.8-3.4,25.9,0.3,38.7,1.5c7.1-17.4,14.8-34.6,23.7-51.3c12.6-24.3,28.6-48.1,52.3-62.7
		C273.6,13.5,284.3,10.1,295.2,8.5z"/>
	<path class="st2" d="M849.2,64.6c50.9,0,101.7,0,152.6,0c0,16.9,0,33.7,0,50.6c-30.5,0-61,0-91.4,0c0,9.6,0,19.2,0,28.7
		c26.3,0,52.5,0,78.8,0c0,15.9,0,31.7,0,47.6c-26.3,0-52.5,0-78.8,0c0,23.5,0,47.1,0,70.6c-20.4,0-40.8,0-61.1,0
		c0-13.2-0.1-26.4,0.1-39.6c-6.9,14.3-16.5,27.9-29.8,37c-10.3,6.9-24.1,10.1-35.8,5c-9.4-4.1-15-13.8-16.9-23.5
		c-2.6-12.9-1.1-26.4,2-39.1c3.2-12.2,8.8-23.4,14.6-34.5c2-4.1,4.6-8.1,5-12.8c-5.1-1.5-8.8,3.4-12,6.6
		c-12,13.8-20.6,30.2-28.5,46.7c-7.7,16.6-14.2,33.8-17.9,51.7c-0.4,3-3.9,3.7-6.4,3.7c-9.4-0.1-18.5-5.8-22.9-14.1
		c-3.3-6-4.2-13-3.9-19.8c0.7-12.9,2.2-25.7,4.9-38.3c-3.4,1.6-7,2.8-10.6,3.5c-3.5,18.4-11.1,36.5-24.3,50
		c-9.8,10-23.1,17-37.2,17.7c-11.5,0.7-23.5-3-31.9-11c-6.8-6.2-11.3-14.7-13.5-23.6c-7.3,11.4-16.7,22.1-28.9,28.5
		c-10.1,5.3-23,5.7-32.7-0.7c-9.2-6.1-14-16.8-15.9-27.3c-3.2-18.1,0.1-36.7,5.2-54.1c3.5-10.7,8.3-21.8,17.6-28.7
		c6.5-5,15.3-5.4,23-3.9c6.5,1.3,12.9,3.6,17.9,8.1c4.4,3.9,6.1,10.5,4.1,16c-2.5,7.4-8.2,13.1-12.6,19.4c-6,7.9-10,17.6-10.3,27.5
		c0,3.6,0.8,8.6,4.9,9.5c5.6,0.6,10.4-3.5,14-7.3c5.2-6,9.9-12.8,12.4-20.3c2.3-14.6,7.5-28.9,16.8-40.5
		c11-13.8,27.4-23.7,45.1-25.6c1.9-8,7.3-15.7,15.5-18c5.9-2.1,12.6,0,17,4.1c6.6,6,10.3,14.4,12.7,22.8c3.8,13.8,4.2,28.2,2.9,42.4
		c4.3-1.9,8.5-4.4,11.7-8c3.5-3.6,4.8-8.7,6.8-13.2c3.1-7.2,6.7-14.3,11.7-20.4c7.7-8.4,18.7-13.3,29.8-15.4c5-0.7,10.5-1.4,15.2,1
		c2.8,1.5,2.9,5.1,1.5,7.6c-7.8,16.7-14.9,33.6-21.2,50.8c10.7-17.9,22.9-35.3,38.7-49c7.9-6.6,17-12.8,27.5-14.1
		c5.5-0.6,12,0.1,15.6,4.8c4.6,6.1,4.7,14.4,4.2,21.7c-1.7,18.9-10.2,36.3-18.5,53.1c-3.7,7.8-8.1,16.2-6.7,25.2
		c0.2,2.7,2.3,5.8,5.4,5.1c6.2-1.3,10.5-6.5,14.5-11c8.7-11,15.7-23.6,20.1-36.9C849.4,142.2,849.1,103.4,849.2,64.6 M627.9,173.6
		c-4,11.5-6,23.9-4,36c1,5.8,4,12.3,10.1,14.1c5.4,1.8,11-1.2,14.6-5.2c6.7-7.6,10.2-17.4,12.4-27.2c0.2-2.3,1.8-5.2-0.4-7
		c-9.2-10.2-14.7-23.4-16.6-37C636.2,154.4,631.3,163.9,627.9,173.6z"/>
	<path class="st2" d="M1013.6,64.6c20.4,0,40.8,0,61.1,0c0,65.8,0,131.7,0,197.5c-20.4,0-40.8,0-61.2,0
		C1013.6,196.2,1013.6,130.4,1013.6,64.6z"/>
	<path class="st2" d="M1083.7,64.6c24,0,47.9,0,71.9,0c10,17.8,20.9,35.2,29,53.9c8.5-18.5,18.6-36.1,28.4-53.9
		c22.8,0,45.5,0,68.3,0c-20.9,30.9-41.8,61.8-62.7,92.7c23.3,34.7,46.6,69.3,69.9,104l0-1.5v2.3c-24.5,0-49,0-73.5,0
		c-11.3-19.6-23.9-38.5-32.9-59.2c-9.8,20.6-22.4,39.6-33.9,59.2c-23.7,0-47.4,0-71.1,0c23.9-34.9,47.7-69.9,71.6-104.8
		C1127,126.3,1105.3,95.5,1083.7,64.6z"/>
	<path class="st2" d="M555.7,75.7c9.1-1.5,18.9-0.9,27.2,3.3c6.2,3.1,11.1,9.4,11.2,16.6c0.2,8.7-5.3,16.4-12,21.5
		c-7.6,5.6-17.1,9.5-26.6,8.2c-9.6-2.2-17.8-9.6-21-18.9c-2.8-8.2-0.1-17.9,6.3-23.6C544.9,79,550.2,76.7,555.7,75.7z"/>
	<path class="st2" d="M302.3,115.3c11-3.8,25.3,1.7,29.2,13c2.9,9.4-2.2,18.6-6.2,26.8c-8,15.4-14.5,31.8-15.7,49.2
		c-0.1,5.1-0.4,11.4,3.9,15c4.6,2.8,9.1-1.7,11.8-5c11-14.2,16.4-31.6,21.7-48.5c3.9-12.1,6.2-24.7,6.2-37.4
		c-0.1-3.4,0.3-7.6,3.6-9.5c4.8-2.5,10.4-0.2,15,1.8c10,5.2,18.9,13.5,23.1,24.2c3.1,10,1.9,20.9-1.8,30.5
		c-4.1,11.6-11.5,22.3-11.8,35c0,4.2,0.8,9.8,5.3,11.3c5,1,9.7-2.4,13-5.8c1.6-12.8,4.9-26.4,13.9-36.2c5.3-5.9,14.1-8.8,21.6-5.5
		c4.7,2.2,9.5,5.9,10.9,11.1c-1.4,4.7-3.6,9.2-4.1,14.2c-0.8,5.7-0.4,12.1,3.2,16.9c3.2,4.4,10.2,5.7,14.7,2.4
		c3.5-2.6,4.6-7.3,4.5-11.5c-0.3-7.8-4.3-14.9-9.2-20.7c-5.7-6.8-13.4-11.5-20.5-16.5c-5.3-3.7-10.4-8.4-12.2-14.8
		c-2.4-9.5,1.4-19.9,8.7-26.2c9.3-8.2,22.2-11,34.3-10.9c12.3,0.1,25.4,2.3,35.5,9.8c7.1,5.1,11.9,13.6,11.4,22.4
		c-0.5,7.8-3.6,16.2-10.4,20.6c-3.5,2.3-9.5,4-12.3-0.1c-3.9-9.1-7.3-18.6-13-26.7c-2-2.7-4.5-5.8-8.1-5.9c-3.2-0.6-6.6,1.7-7.1,4.9
		c-0.8,3.3,0.9,6.6,2.8,9.2c6.2,8.5,15.9,13.4,22.6,21.5c18.1,20,16.7,54.3-2.9,72.8c-11.1,10.7-27.3,14.9-42.4,12.7
		c-13.8-1.4-27.1-9-34.6-20.8c-6.8,8.1-15.2,15.3-25.2,19c-10,3.7-21.9,2.3-30.6-4.1c-8.4-6.1-13.3-16-15.2-26.1
		c-5.8,10.4-13.2,20.6-23.8,26.6c-8.5,4.8-20,5.6-28.2-0.3c-7.1-5.1-10.4-13.8-12.2-22c-3-15.3-1.6-31.1,0.9-46.3
		c3-17.7,6.6-35.6,13.8-52.1C290,126.3,294.3,118.3,302.3,115.3z"/>
</g>
</svg>
