<svg xmlns="http://www.w3.org/2000/svg" width="708" height="710" viewBox="0 0 708 710" version="1.1"><path d="M 325.500 0.615 C 238.870 9.285, 168.416 41.820, 107.217 101.420 C 45.334 161.685, 8.849 238.413, 0.902 325 C -0.309 338.195, 0.307 386.658, 1.792 395 L 2.592 399.500 5.331 394.214 C 9.234 386.682, 14.313 381.479, 20.839 378.327 C 30.763 373.533, 45.325 374.925, 55.584 381.647 L 58.104 383.298 54.396 385.399 C 49.718 388.050, 47.111 391.542, 46.361 396.161 C 45.448 401.786, 48.272 404, 56.360 404 C 61.559 404, 63.855 403.414, 68.945 400.789 C 83.583 393.240, 99.850 373.311, 113.259 346.500 C 119.734 333.554, 140 285.283, 140 282.807 C 140 281.583, 131.258 281.843, 126.724 283.201 C 120.885 284.950, 116.506 289.557, 114.608 295.948 C 113.724 298.926, 113 302.491, 113 303.869 L 113 306.374 110.119 303.614 C 103.407 297.184, 99.222 284.409, 101.095 276.072 C 102.480 269.908, 104.402 266.668, 109.016 262.719 C 114.938 257.649, 119.959 256.559, 133.317 257.442 C 139.467 257.848, 145.784 258.253, 147.353 258.341 C 150.088 258.493, 150.443 257.958, 155.887 245.500 C 180.191 189.874, 202.036 164.458, 232.066 156.864 C 244.013 153.843, 260.344 154.476, 267.607 158.241 C 277.875 163.565, 282.785 170.166, 285.025 181.663 C 286.153 187.450, 286.076 188.155, 283.762 193.209 C 278.666 204.340, 271.117 209.937, 261.144 209.978 C 256.611 209.997, 244.287 207.596, 243.144 206.472 C 242.948 206.279, 244.664 204.337, 246.956 202.156 C 250.742 198.555, 251.096 197.802, 250.812 193.948 C 250.384 188.123, 248.528 187.145, 242.368 189.497 C 235.498 192.121, 228.574 199.516, 218.526 214.960 C 212.362 224.435, 208.067 232.605, 203.346 243.837 C 192.790 268.950, 193.448 267.041, 195.019 268.012 C 197.343 269.448, 210.268 270.169, 213.934 269.067 C 215.822 268.499, 217.603 268.270, 217.892 268.558 C 218.180 268.847, 218.387 272.173, 218.353 275.951 C 218.279 284.041, 216.212 288.382, 210.965 291.465 C 208.173 293.104, 205.751 293.500, 198.500 293.500 C 193.550 293.500, 188.171 293.275, 186.546 293 L 183.593 292.500 177.731 307 C 155.948 360.886, 136.371 403.098, 125.809 418.956 C 113.334 437.685, 97.075 452.078, 81.612 458.083 C 59.944 466.497, 30.046 462.459, 15.760 449.190 C 14.254 447.791, 12.748 446.918, 12.415 447.251 C 10.601 449.065, 24.338 487.280, 34.433 508.500 C 88.588 622.343, 198.600 698.327, 324.806 709.057 C 344.706 710.749, 384.256 709.761, 402 707.129 C 444.076 700.888, 478.137 690.141, 514.949 671.491 C 620.773 617.879, 693.150 513.026, 705.949 394.789 C 706.527 389.449, 707.032 382.924, 707.070 380.289 C 707.123 376.693, 707.355 375.998, 708 377.500 C 708.511 378.689, 708.882 369.156, 708.914 354 C 708.951 337.192, 708.639 329.011, 708 330 C 707.314 331.062, 707.022 329.747, 707 325.500 C 706.953 316.204, 705.793 316.023, 702.221 324.756 C 691.990 349.771, 674.352 367.251, 657.830 368.749 C 646.448 369.781, 638.251 365.301, 633.408 355.401 C 631.182 350.853, 630.602 348.064, 630.217 340.061 C 629.424 323.594, 632.105 312.984, 642.585 291.110 C 646.113 283.746, 649 277.333, 649 276.860 C 649 276.387, 647.876 276, 646.503 276 C 640.453 276, 628.480 292.009, 616.616 315.963 C 609.816 329.691, 600 356.177, 600 360.796 C 600 367.975, 588.682 367.435, 580.469 359.865 C 575.013 354.835, 573 349.163, 573 338.815 C 573 331.790, 575.066 314.570, 576.681 308.137 C 577.216 306.003, 577.044 305.780, 575.400 306.483 C 574.355 306.930, 572.047 307.786, 570.271 308.386 C 567.452 309.338, 566.910 310.111, 565.994 314.488 C 564.458 321.831, 559.013 334.668, 554.663 341.204 C 549.371 349.156, 539.736 357.754, 532.020 361.410 C 525.962 364.281, 524.720 364.500, 514.500 364.500 C 504.435 364.500, 503.057 364.267, 498.291 361.754 C 489.877 357.318, 482.459 348.151, 479.476 338.500 C 478.904 336.650, 478.697 336.725, 476.719 339.500 C 471.293 347.113, 460.378 357.181, 454.318 360.164 C 442.762 365.853, 430.661 363.966, 423.017 355.282 C 417.381 348.879, 414.907 341.562, 414.262 329.395 C 413.132 308.041, 419.716 283.961, 429.710 272.899 C 431.712 270.683, 434.509 268.278, 435.925 267.554 C 445.352 262.732, 463.228 266.764, 468.750 274.957 C 472.829 281.009, 471.224 286.562, 461.868 298.768 C 455.587 306.963, 454.324 309.478, 452.465 317.494 C 447.691 338.081, 462.418 337.585, 474.922 316.737 C 476.163 314.668, 478.255 308.593, 479.570 303.237 C 480.885 297.882, 483.653 290.125, 485.721 286 C 493.046 271.384, 508.914 258.888, 523.890 255.942 C 529.159 254.905, 529.777 254.505, 530.899 251.402 C 532.761 246.253, 536.561 242.333, 541.528 240.436 C 545.740 238.828, 546.259 238.827, 550.453 240.429 C 562.098 244.876, 569 261.820, 569 285.958 C 569 294.364, 569.311 297, 570.303 297 C 572.976 297, 579.914 290.803, 581.815 286.718 C 589.239 270.764, 591.260 267.027, 594.511 263.243 C 598.912 258.119, 604.972 254.421, 613.125 251.884 C 622.954 248.825, 633 249.671, 633 253.557 C 633 254.375, 631.610 258.072, 629.911 261.772 C 625.440 271.509, 614.833 298.166, 615.259 298.592 C 615.458 298.792, 618.815 294.127, 622.718 288.227 C 639.819 262.378, 657.977 247.554, 672.588 247.516 C 677.385 247.504, 679.292 247.952, 681.030 249.500 C 689.991 257.480, 686.930 280.332, 673.267 307.462 C 665.066 323.747, 663.084 333.084, 667 337 C 669.567 339.567, 669.905 339.535, 674.785 336.250 C 680.899 332.135, 688.366 322.153, 693.893 310.705 C 701.219 295.532, 702 293.517, 702 289.781 C 702 285.473, 694.232 254.590, 689.981 242 C 649.058 120.779, 548.649 32.046, 423.500 6.506 C 401.240 1.963, 389.018 0.829, 359 0.519 C 342.775 0.352, 327.700 0.395, 325.500 0.615 M 450.807 212.498 C 433.268 218.945, 432.431 240.432, 449.376 249.229 C 464.831 257.252, 490.467 239.576, 485.994 223.980 C 484.576 219.033, 479.347 214.181, 473.596 212.473 C 467.494 210.661, 455.770 210.674, 450.807 212.498 M 242.962 245.250 C 233.742 249.899, 225.668 270.063, 220.397 301.601 C 218.133 315.146, 218.058 335.807, 220.246 343 C 224.122 355.741, 230.620 361.521, 241 361.462 C 250.766 361.406, 260.937 354.351, 268.695 342.250 C 270.547 339.363, 272.255 337, 272.492 337 C 272.729 337, 273.438 338.913, 274.067 341.250 C 277.805 355.140, 288.690 363.582, 301.901 362.836 C 310.337 362.359, 317.501 358.953, 325.728 351.508 L 331.845 345.973 333.938 348.913 C 337.168 353.450, 344.849 358.591, 352.009 361.008 C 357.430 362.838, 360.148 363.135, 368.500 362.805 C 377.230 362.461, 379.337 362.007, 385.089 359.231 C 405.578 349.344, 413.690 323.875, 403.490 301.457 C 402.450 299.171, 397.041 292.972, 390.683 286.778 C 375.444 271.932, 373.521 268.479, 378 264 C 383.552 258.448, 389.675 264.351, 397.963 283.250 C 401.341 290.953, 401.384 291, 405.147 291 C 410.398 291, 415.376 285.953, 417.570 278.408 C 420.040 269.910, 418.313 263.506, 411.822 257.099 C 404.257 249.632, 393.310 246.527, 376.821 247.171 C 368.186 247.508, 365.520 248.026, 360.500 250.343 C 350.666 254.883, 345.626 261.150, 344.356 270.422 C 343.312 278.034, 346.255 282.383, 358.637 291.530 C 370.536 300.321, 376.023 306.542, 378.527 314.082 C 382.307 325.461, 375.858 334.475, 366.681 330.640 C 360.213 327.938, 358.202 317.898, 361.952 307.034 C 364.175 300.596, 363.712 299.253, 357.798 294.969 C 353.190 291.630, 347.718 291.048, 343.200 293.415 C 336.248 297.057, 329.946 307.269, 327.988 318.063 C 326.389 326.883, 325.107 329.189, 320.570 331.412 C 317.077 333.123, 316.396 333.172, 314.084 331.879 C 308.136 328.553, 308.922 318.437, 316.458 301.313 C 323.673 284.920, 324.367 273.422, 318.725 263.793 C 312.228 252.707, 296.457 243.505, 290.568 247.364 C 288.523 248.703, 288.130 249.985, 287.551 257.202 C 286.556 269.626, 284.286 279.919, 279.391 294.209 C 269.580 322.854, 259.144 336.342, 252.486 328.985 C 249.846 326.068, 249.440 317.624, 251.493 308.327 C 253.954 297.181, 255.424 293.118, 262.187 278.759 C 270.305 261.524, 270.842 256.531, 265.292 249.935 C 262.031 246.059, 255.796 243.052, 250.962 243.022 C 249.016 243.010, 245.416 244.012, 242.962 245.250 M 525.101 273.142 C 520.919 277.528, 514.484 290.791, 512.556 299 C 510.821 306.389, 510.522 319.846, 511.980 324.931 C 513.224 329.268, 517.457 333.722, 521.094 334.521 C 529.340 336.332, 538.657 325.024, 542.532 308.503 C 543.936 302.514, 543.934 302.501, 541.142 299.003 C 536.260 292.886, 533.187 286.742, 530.711 278.142 L 528.304 269.784 525.101 273.142 M 0.435 355 C 0.435 369.025, 0.575 374.762, 0.747 367.750 C 0.919 360.738, 0.919 349.262, 0.747 342.250 C 0.575 335.238, 0.435 340.975, 0.435 355 M 210 465.500 L 210 554 237 554 L 264 554 264 522.500 L 264 491 299.500 491 L 335 491 335 470 L 335 449 299.500 449 L 264 449 264 435.500 L 264 422 305 422 L 346 422 346 399.500 L 346 377 278 377 L 210 377 210 465.500 M 361 465.500 L 361 554 388 554 L 415 554 415 465.500 L 415 377 388 377 L 361 377 361 465.500 M 428 377.485 C 428 377.768, 435.351 388.461, 444.335 401.249 C 453.320 414.037, 466.342 432.572, 473.273 442.437 L 485.876 460.373 474.228 477.437 C 467.822 486.822, 458.884 499.900, 454.368 506.500 C 449.851 513.100, 440.711 526.487, 434.058 536.250 L 421.960 554 453.343 554 L 484.726 554 496.242 534.750 C 502.576 524.163, 509.432 512.161, 511.478 508.079 L 515.197 500.659 521.382 512.579 C 524.783 519.136, 531.533 531.138, 536.381 539.250 L 545.196 554 577.598 554 C 595.419 554, 610 553.762, 610 553.471 C 610 552.992, 566.201 487.509, 553.325 468.737 C 550.396 464.467, 548 460.713, 548 460.395 C 548 460.077, 552.652 452.996, 558.337 444.659 C 564.022 436.321, 574.914 420.275, 582.541 409 C 590.168 397.725, 598.115 386.025, 600.201 383 L 603.995 377.500 574.759 377.235 C 558.679 377.089, 545.032 377.157, 544.432 377.388 C 543.245 377.843, 531.345 399.257, 523.019 415.918 L 517.813 426.336 510.065 411.418 C 505.803 403.213, 499.819 392.225, 496.768 387 L 491.220 377.500 459.610 377.236 C 442.224 377.091, 428 377.203, 428 377.485" stroke="none" fill="#fcfcfc" fill-rule="evenodd"/></svg>