<?xml version="1.0" encoding="UTF-8" standalone="no"?>
<svg
   width="10.4167in"
   height="3.03125in"
   viewBox="0 0 1000 291"
   version="1.1"
   id="svg1"
   sodipodi:docname="fusionfixlogo.svg"
   inkscape:version="1.3.2 (091e20e, 2023-11-25, custom)"
   xmlns:inkscape="http://www.inkscape.org/namespaces/inkscape"
   xmlns:sodipodi="http://sodipodi.sourceforge.net/DTD/sodipodi-0.dtd"
   xmlns="http://www.w3.org/2000/svg"
   xmlns:svg="http://www.w3.org/2000/svg">
  <defs
     id="defs1" />
  <sodipodi:namedview
     id="namedview1"
     pagecolor="#ffffff"
     bordercolor="#000000"
     borderopacity="0.25"
     inkscape:showpageshadow="2"
     inkscape:pageopacity="0.0"
     inkscape:pagecheckerboard="0"
     inkscape:deskcolor="#d1d1d1"
     inkscape:document-units="in"
     inkscape:zoom="1.2989958"
     inkscape:cx="500.00162"
     inkscape:cy="145.49701"
     inkscape:window-width="1920"
     inkscape:window-height="1018"
     inkscape:window-x="-6"
     inkscape:window-y="-6"
     inkscape:window-maximized="1"
     inkscape:current-layer="svg1" />
  <path
     id="Path copy #1 [9] [10]"
     fill="none"
     stroke="black"
     stroke-width="1"
     d="M 196.93,11.59            C 203.24,7.05 210.50,3.88 218.72,2.07              226.94,0.26 234.77,-0.14 242.20,0.89              249.63,1.91 255.83,5.14 260.78,10.58              265.74,16.01 268.22,23.27 268.22,32.35              264.83,41.87 260.03,48.05 253.81,50.89              247.61,53.72 238.74,52.98 227.22,48.66              234.00,44.59 236.94,40.28 236.04,35.74              235.59,31.89 232.88,30.87 227.90,32.68              221.80,34.72 215.25,41.07 208.25,51.73              207.12,53.55 203.28,59.67 196.73,70.09              193.34,78.24 188.14,90.59 181.14,107.12              192.66,109.16 200.46,109.06 204.53,106.79              205.43,113.34 205.20,118.48 203.84,122.20              202.49,125.92 200.18,128.40 196.90,129.65              193.62,130.89 190.07,131.50 186.23,131.50              182.39,131.50 177.76,130.82 172.34,129.46              154.72,173.74 140.48,206.73 129.63,228.44              107.50,273.57 79.04,293.98 44.24,289.67              31.59,288.08 21.25,283.72 13.23,276.58              5.20,269.44 0.85,259.74 0.17,247.49              -0.28,239.56 1.14,232.41 4.41,226.06              7.69,219.71 11.86,215.02 16.95,211.97              22.03,208.92 27.97,207.62 34.75,208.07              41.53,208.52 48.08,211.11 54.41,215.85              48.08,217.44 44.35,220.96 43.22,226.40              42.09,231.39 44.01,234.34 48.99,235.24              51.25,235.70 53.96,235.58 57.11,234.90              68.56,232.19 80.35,222.10 92.47,204.64              94.71,201.45 96.78,198.22 98.69,194.93              100.60,191.64 102.67,187.73 104.93,183.20              107.18,178.67 108.98,174.98 110.33,172.14              111.69,169.31 113.61,164.89 116.10,158.88              118.59,152.87 120.29,148.90 121.19,146.97              122.09,145.05 124.01,140.40 126.95,133.03              129.89,125.66 131.58,121.29 132.03,119.93              123.90,119.25 117.52,120.61 112.88,124.01              108.25,127.42 105.93,133.88 105.93,143.41              99.60,137.72 95.82,131.11 94.57,123.60              93.33,116.09 94.96,109.66 99.48,104.31              104.00,98.97 110.63,96.29 119.36,96.29              122.26,96.29 129.42,97.09 140.82,98.67              149.38,77.57 158.06,59.72 166.84,45.10              175.64,30.47 185.66,19.30 196.93,11.59 Z"
     style="fill:#000000" />
  <path
     id="Path copy #1 [9] [6]"
     fill="none"
     stroke="black"
     stroke-width="1"
     d="M 538.29,172.40            C 536.60,195.82 555.24,200.57 561.00,198.87              562.02,198.54 562.70,198.19 563.04,197.17              569.82,161.88 598.98,111.31 608.46,114.03              614.23,115.38 597.62,133.37 593.21,157.13              587.45,189.36 600.33,203.62 617.96,201.92              641.68,199.55 657.28,170.37 664.06,148.99              667.45,136.76 659.31,129.65 656.94,136.76              650.50,154.42 637.27,173.42 629.14,173.42              624.74,173.42 624.06,167.31 625.41,160.86              628.12,150.01 640.33,133.72 644.05,112.68              646.09,100.46 644.74,88.92 635.25,87.56              615.93,84.51 591.86,111.66 575.25,142.20              581.34,125.23 587.79,109.62 594.23,96.04              599.31,85.18 568.80,88.92 557.61,103.50              546.09,119.12 539.66,147.63 538.29,172.40 Z"
     style="fill:#000000" />
  <path
     id="Path copy #1 [9] [5]"
     fill="none"
     stroke="black"
     stroke-width="1"
     d="M 450.16,141.52            C 442.70,178.85 461.00,198.52 483.04,198.52              507.45,198.52 527.11,176.81 532.88,145.59              542.03,144.24 550.50,138.13 553.55,129.30              556.61,120.82 549.48,119.12 547.44,123.88              545.07,128.97 539.99,133.04 534.23,135.07              537.62,103.17 526.77,79.07 512.20,80.09              504.07,81.11 499.31,87.23 497.62,94.69              478.30,96.39 455.92,112.00 450.16,141.52 Z            M 510.84,140.50            C 508.13,156.45 500.33,169.68 491.51,169.68              481.34,169.68 477.62,157.13 480.67,139.48              483.38,125.58 490.16,113.01 496.94,108.26              497.96,118.79 503.05,131.00 510.84,138.81              510.84,138.81 510.84,140.50 510.84,140.50 Z"
     style="fill:#000000" />
  <path
     id="Path copy #1 [9] [4]"
     fill="none"
     stroke="black"
     stroke-width="1"
     d="M 389.83,146.94            C 385.08,177.49 395.59,196.83 414.57,196.83              436.60,196.83 454.91,166.63 460.33,148.64              464.39,136.43 455.92,129.65 453.55,136.43              447.44,154.08 437.62,168.00 429.14,168.00              422.02,168.00 422.71,155.43 427.79,144.92              433.55,133.37 446.77,124.89 441.01,114.03              436.94,106.57 419.65,101.82 410.84,105.89              399.99,110.64 393.22,126.58 389.83,146.94 Z"
     style="fill:#000000" />
  <path
     id="Path copy #1 [9] [3]"
     fill="none"
     stroke="black"
     stroke-width="1"
     d="M 427.45,91.30            C 435.92,92.65 447.79,87.23 453.55,79.07              462.02,66.86 454.57,53.29 434.90,52.95              423.38,52.61 411.18,58.04 410.50,71.28              410.16,80.77 418.98,89.60 427.45,91.30 Z"
     style="fill:#000000" />
  <path
     id="Path copy #1 [9] [2]"
     fill="none"
     stroke="black"
     stroke-width="1"
     d="M 348.13,166.98            C 338.64,166.98 334.57,154.47 341.35,139.63              342.36,137.27 336.60,130.85 330.84,129.83              320.34,127.80 310.84,137.60 307.11,157.18              303.72,176.48 317.28,191.75 333.55,195.48              364.06,202.26 385.08,180.20 383.04,153.47              381.69,137.60 373.21,129.16 365.76,123.08              355.92,115.66 352.87,110.25 353.22,106.87              353.55,103.16 356.26,100.80 360.67,101.81              365.41,102.83 370.50,112.28 376.26,127.14              377.95,131.18 389.49,129.16 392.53,115.99              396.27,101.48 384.40,89.25 364.06,87.23              338.97,84.51 323.38,96.04 323.38,110.93              323.38,127.14 343.38,127.47 353.55,145.37              359.65,156.17 356.61,166.98 348.13,166.98 Z"
     style="fill:#000000" />
  <path
     id="Path copy #1 [9] [1]"
     fill="none"
     stroke="black"
     stroke-width="1"
     d="M 206.61,140.85            C 201.52,171.72 207.28,195.13 225.93,195.13              238.47,195.13 248.64,184.27 256.09,170.37              258.46,186.65 269.32,196.50 282.53,196.50              304.91,196.50 322.87,166.30 328.64,148.64              332.36,136.43 323.89,129.30 321.52,136.43              315.41,153.73 305.24,167.98 297.11,167.98              293.05,167.98 291.01,164.26 291.01,158.49              291.01,155.10 292.03,150.68 293.72,145.94              298.81,134.39 305.24,123.88 302.20,109.28              298.13,92.99 269.99,77.38 269.99,92.99              269.99,110.30 266.26,119.80 262.54,131.67              256.09,152.04 246.94,166.63 240.84,166.63              233.04,166.63 233.38,152.04 238.12,136.09              244.23,116.40 254.07,106.91 252.37,96.39              251.01,85.86 235.75,80.09 226.95,85.86              218.13,91.30 211.00,112.68 206.61,140.85 Z"
     style="fill:#000000" />
  <path
     id="Path copy #1 [3] [3]"
     fill="none"
     stroke="black"
     stroke-width="1"
     d="M 775.51,44.86            C 775.51,44.86 657.31,44.86 657.31,44.86              657.31,44.86 657.31,198.18 657.31,198.18              657.31,198.18 704.06,198.18 704.06,198.18              704.06,198.18 704.06,143.05 704.06,143.05              704.06,143.05 765.63,143.05 765.63,143.05              765.63,143.05 765.63,106.88 765.63,106.88              765.63,106.88 704.06,106.88 704.06,106.88              704.06,106.88 704.06,83.39 704.06,83.39              704.06,83.39 775.51,83.39 775.51,83.39              775.51,83.39 775.51,44.86 775.51,44.86 Z"
     style="fill:#000000" />
  <path
     id="Path copy #1 [3] [2]"
     fill="none"
     stroke="black"
     stroke-width="1"
     d="M 832.53,44.86            C 832.53,44.86 785.78,44.86 785.78,44.86              785.78,44.86 785.78,198.18 785.78,198.18              785.78,198.18 832.53,198.18 832.53,198.18              832.53,198.18 832.53,44.86 832.53,44.86 Z"
     style="fill:#000000" />
  <path
     id="Path copy #1 [3] [1]"
     fill="none"
     stroke="black"
     stroke-width="1"
     d="M 993.45,44.86            C 993.45,44.86 941.33,44.86 941.33,44.86              941.33,44.86 928.89,67.47 928.89,67.47              926.03,72.78 922.67,79.54 918.81,87.71              914.95,78.95 911.16,71.42 907.45,65.10              907.45,65.10 895.86,44.86 895.86,44.86              895.86,44.86 840.94,44.86 840.94,44.86              840.94,44.86 891.35,116.79 891.35,116.79              891.35,116.79 835.80,198.18 835.80,198.18              835.80,198.18 890.07,198.18 890.07,198.18              890.07,198.18 904.66,173.85 904.66,173.85              908.09,168.41 912.16,160.85 916.87,151.24              920.32,159.13 924.03,166.45 928.02,173.21              928.02,173.21 942.84,198.18 942.84,198.18              942.84,198.18 999.47,198.18 999.47,198.18              999.47,198.18 944.76,116.79 944.76,116.79              944.76,116.79 993.45,44.86 993.45,44.86 Z"
     style="fill:#000000" />
</svg>
