<?xml version="1.0" encoding="UTF-8" standalone="no"?>
<svg
   width="3.927254in"
   height="2.2213347in"
   viewBox="0 0 785.45079 444.26694"
   version="1.1"
   id="svg1"
   sodipodi:docname="fusion_fix_logo_2ln.svg"
   inkscape:version="1.3.2 (091e20e, 2023-11-25, custom)"
   xmlns:inkscape="http://www.inkscape.org/namespaces/inkscape"
   xmlns:sodipodi="http://sodipodi.sourceforge.net/DTD/sodipodi-0.dtd"
   xmlns="http://www.w3.org/2000/svg"
   xmlns:svg="http://www.w3.org/2000/svg">
  <sodipodi:namedview
     id="namedview1"
     pagecolor="#ffffff"
     bordercolor="#000000"
     borderopacity="0.25"
     inkscape:showpageshadow="2"
     inkscape:pageopacity="0.0"
     inkscape:pagecheckerboard="0"
     inkscape:deskcolor="#d1d1d1"
     inkscape:document-units="in"
     inkscape:zoom="0.85625"
     inkscape:cx="286.71533"
     inkscape:cy="110.94891"
     inkscape:window-width="1920"
     inkscape:window-height="1018"
     inkscape:window-x="-6"
     inkscape:window-y="-6"
     inkscape:window-maximized="1"
     inkscape:current-layer="svg1" />
  <defs
     id="defs1" />
  <path
     id="Path copy #1 [9] [10]"
     fill="none"
     stroke="#000000"
     stroke-width="1"
     d="m 232.77564,13.766953 c 7.44,-5.3500003 16.01,-9.0900003 25.71,-11.2200003 9.7,-2.14000004 18.93,-2.60000004 27.71,-1.39 8.77,1.2 16.08,5 21.92,11.4200003 5.85,6.41 8.78,14.96 8.78,25.65 -4,11.24 -9.67,18.52 -17,21.86 -7.32,3.34 -17.78,2.47 -31.38,-2.62 8,-4.8 11.47,-9.88 10.41,-15.24 -0.53,-4.53 -3.73,-5.74 -9.61,-3.6 -7.2,2.4 -14.93,9.89 -23.19,22.45 -1.33,2.15 -5.86,9.36 -13.59,21.64 -4,9.62 -10.13,24.169997 -18.39,43.659997 13.59,2.4 22.79,2.27 27.59,-0.39 1.07,7.71 0.79,13.77 -0.81,18.15 -1.59,4.39 -4.32,7.31 -8.19,8.78 -3.86,1.46 -8.06,2.19 -12.59,2.19 -4.53,0 -10,-0.8 -16.39,-2.41 -20.79,52.19 -37.59,91.08 -50.39,116.68 -26.12,53.18 -59.700002,77.24 -100.770002,72.17 -14.92,-1.88 -27.12,-7.03 -36.59,-15.44 -9.4700002,-8.42 -14.6000002,-19.84 -15.41000018,-34.28 -0.53,-9.36 1.13999998,-17.78 4.99999998,-25.27 3.87,-7.48 8.8000002,-13.01 14.8000002,-16.61 6,-3.59 13,-5.12 21,-4.59 8,0.53 15.73,3.59 23.2,9.17 -7.47,1.88 -11.86,6.02 -13.2,12.44 -1.33,5.88 0.94,9.36 6.81,10.42 2.67,0.53 5.86,0.4 9.58,-0.4 13.51,-3.2 27.42,-15.09 41.720002,-35.68 2.64,-3.75 5.09,-7.56 7.34,-11.43 2.25,-3.88 4.71,-8.49 7.36,-13.83 2.66,-5.35 4.78,-9.69 6.38,-13.03 1.6,-3.35 3.87,-8.56 6.81,-15.64 2.94,-7.09 4.94,-11.76 6,-14.04 1.06,-2.27 3.33,-7.75 6.8,-16.43 3.47,-8.69 5.47,-13.84 6,-15.44 -9.6,-0.8 -17.13,0.8 -22.6,4.81 -5.47,4.01 -8.2,11.63 -8.2,22.86 -7.47,-6.71 -11.94,-14.49 -13.41,-23.34 -1.47,-8.85 0.46,-16.43 5.8,-22.74 5.33,-6.3 13.15,-9.45 23.45,-9.45 3.43,0 11.87,0.93 25.33,2.8 10.1,-24.869997 20.34,-45.909997 30.71,-63.139997 10.37,-17.24 22.2,-30.41 35.5,-39.5 z m 402.81,189.539997 c -2,27.61 20,33.21 26.79,31.21 1.21,-0.39 2,-0.8 2.41,-2 8,-41.6 42.41,-101.21 53.59,-98 6.82,1.59 -12.79,22.79 -18,50.79 -6.79,38 8.41,54.8 29.21,52.8 28,-2.8 46.4,-37.19 54.4,-62.39 4,-14.41 -5.61,-22.8 -8.4,-14.41 -7.6,20.82 -23.21,43.21 -32.8,43.21 -5.2,0 -6,-7.21 -4.41,-14.8 3.21,-12.8 17.61,-32 22,-56.8 2.41,-14.4 0.82,-28 -10.39,-29.61 -22.79,-3.589997 -51.2,28.41 -70.79,64.41 7.18,-20 14.79,-38.41 22.39,-54.41 6,-12.79 -30,-8.39 -43.21,8.8 -13.59,18.41 -21.18,52.02 -22.79,81.2 z m -104,-36.39 c -8.8,44 12.79,67.19 38.79,67.19 28.82,0 52,-25.59 58.82,-62.39 10.79,-1.59 20.79,-8.8 24.39,-19.2 3.61,-10 -4.8,-12 -7.21,-6.39 -2.79,6 -8.79,10.79 -15.59,13.18 4,-37.59 -8.8,-65.999997 -26,-64.789997 -9.59,1.2 -15.2,8.399997 -17.2,17.199997 -22.8,2 -49.21,20.41 -56,55.2 z m 71.61,-1.2 c -3.21,18.8 -12.41,34.39 -22.82,34.39 -12,0 -16.39,-14.8 -12.79,-35.59 3.2,-16.39 11.2,-31.21 19.2,-36.8 1.2,12.41 7.2,26.8 16.41,36 z m -142.8,7.59 c -5.61,36 6.8,58.8 29.19,58.8 26,0 47.61,-35.59 54,-56.8 4.79,-14.39 -5.21,-22.39 -8,-14.39 -7.21,20.8 -18.8,37.21 -28.8,37.21 -8.41,0 -7.59,-14.82 -1.59,-27.21 6.79,-13.61 22.39,-23.61 15.59,-36.4 -4.8,-8.8 -25.2,-14.39 -35.59,-9.6 -12.82,5.6 -20.8,24.39 -24.8,48.39 z m 44.39,-65.59 c 10,1.59 24,-4.8 30.8,-14.409997 10,-14.39 1.2,-30.39 -22,-30.79 -13.6,-0.39 -28,6 -28.8,21.61 -0.41,11.18 10,21.589997 20,23.589997 z m -93.59,89.2 c -11.21,0 -16,-14.73 -8,-32.23 1.18,-2.78 -5.61,-10.35 -12.41,-11.55 -12.39,-2.39 -23.59,9.16 -28,32.24 -4,22.75 12,40.75 31.2,45.14 36,8 60.8,-18 58.39,-49.52 -1.59,-18.7 -11.59,-28.66 -20.39,-35.81 -11.61,-8.75 -15.2,-15.13 -14.79,-19.11 0.39,-4.38 3.59,-7.16 8.79,-5.97 5.6,1.2 11.6,12.34 18.39,29.86 2,4.76 15.61,2.37 19.21,-13.14 4.4,-17.11 -9.6,-31.52 -33.6,-33.91 -29.61,-3.199997 -48,10.39 -48,27.94 0,19.11 23.6,19.5 35.6,40.59 7.2,12.74 3.61,25.47 -6.39,25.47 z m -167,-30.79 c -6,36.39 0.79,63.98 22.79,63.98 14.8,0 26.8,-12.8 35.6,-29.19 2.79,19.19 15.61,30.8 31.2,30.8 26.41,0 47.59,-35.59 54.41,-56.41 4.39,-14.39 -5.61,-22.79 -8.41,-14.39 -7.2,20.39 -19.2,37.19 -28.8,37.19 -4.79,0 -7.2,-4.39 -7.2,-11.19 0,-4 1.2,-9.2 3.2,-14.79 6,-13.61 13.6,-26 10,-43.21 -4.79,-19.2 -38,-37.609997 -38,-19.2 0,20.41 -4.4,31.59 -8.79,45.59 -7.61,24 -18.41,41.21 -25.61,41.21 -9.21,0 -8.8,-17.21 -3.21,-36 7.21,-23.21 18.82,-34.39 16.82,-46.8 -1.61,-12.41 -19.61,-19.199997 -30,-12.41 -10.41,6.41 -18.82,31.61 -24,64.82 z m 425.68,81.49 c 0,0 -66.75,0 -66.75,0 0,0 -15.93,28.93 -15.93,28.93 -3.67,6.8 -7.96,15.44 -12.91,25.9 -4.95,-11.21 -9.8,-20.84 -14.55,-28.93 0,0 -14.85,-25.9 -14.85,-25.9 0,0 -70.32,0 -70.32,0 0,0 64.56,92.03 64.56,92.03 0,0 -71.15,104.12 -71.15,104.12 0,0 69.51,0 69.51,0 0,0 18.68,-31.12 18.68,-31.12 4.39,-6.97 9.6,-16.63 15.63,-28.93 4.42,10.09 9.18,19.46 14.29,28.1 0,0 18.97,31.95 18.97,31.95 0,0 72.53,0 72.53,0 0,0 -70.07,-104.12 -70.07,-104.12 z m -209.34,0 c 0,0 -59.87,0 -59.87,0 0,0 0,196.15 0,196.15 0,0 59.87,0 59.87,0 z m -76.29,0 c 0,0 -151.37,0 -151.37,0 0,0 0,196.15 0,196.15 0,0 59.87,0 59.87,0 0,0 0,-70.53 0,-70.53 0,0 78.85,0 78.85,0 0,0 0,-46.28 0,-46.28 0,0 -78.85,0 -78.85,0 0,0 0,-30.04 0,-30.04 0,0 91.5,0 91.5,0 z"
     style="fill:#1a1a1a" />
</svg>
